<svg width="42" height="37" viewBox="0 0 42 37" fill="none" xmlns="http://www.w3.org/2000/svg">
<g filter="url(#filter0_d)">
<path d="M5 1H11L15 21C15.133 21.6752 15.4682 21.5683 16 22C16.5318 22.4317 17.3174 23.0132 18 23H32C32.6826 23.0132 33.4682 22.4317 34 22C34.5318 21.5683 34.867 21.6752 35 21L37 8H12.4M21 27C21 27.5523 20.5523 28 20 28C19.4477 28 19 27.5523 19 27C19 26.4477 19.4477 26 20 26C20.5523 26 21 26.4477 21 27ZM32 27C32 27.5523 31.5523 28 31 28C30.4477 28 30 27.5523 30 27C30 26.4477 30.4477 26 31 26C31.5523 26 32 26.4477 32 27Z" stroke="white" stroke-width="2" stroke-linecap="round" stroke-linejoin="round"/>
</g>
<defs>
<filter id="filter0_d" x="0" y="0" width="42" height="37" filterUnits="userSpaceOnUse" color-interpolation-filters="sRGB">
<feFlood flood-opacity="0" result="BackgroundImageFix"/>
<feColorMatrix in="SourceAlpha" type="matrix" values="0 0 0 0 0 0 0 0 0 0 0 0 0 0 0 0 0 0 127 0"/>
<feOffset dy="4"/>
<feGaussianBlur stdDeviation="2"/>
<feColorMatrix type="matrix" values="0 0 0 0 0 0 0 0 0 0 0 0 0 0 0 0 0 0 0.25 0"/>
<feBlend mode="normal" in2="BackgroundImageFix" result="effect1_dropShadow"/>
<feBlend mode="normal" in="SourceGraphic" in2="effect1_dropShadow" result="shape"/>
</filter>
</defs>
</svg>
