<svg width="36" height="37" viewBox="0 0 36 37" fill="none" xmlns="http://www.w3.org/2000/svg">
<rect x="1" y="1.32666" width="34" height="34" rx="17" stroke="#6C6C4C" stroke-width="2"/>
<path d="M27 10.3268C26.2165 10.8914 24.9181 11.0443 24 11.3268C23.5072 10.7479 23.7284 10.513 23 10.3268C22.2716 10.1406 20.7015 10.0532 20 10.3268C19.2985 10.6004 19.4217 11.692 19 12.3268C18.5783 12.9615 17.9899 13.5597 18 14.3268V15.3268C16.5622 15.3649 15.2848 14.9875 14 14.3268C12.7152 13.6661 11.8266 12.5294 11 11.3268C11 11.3268 7.63636 18.983 15 22.3268C13.315 23.4954 11.0349 23.4095 9 23.3268C16.3636 27.5065 25 23.9402 25 14.3268C24.9992 14.0939 25.0428 13.5555 25 13.3268C25.835 12.4854 26.7225 11.491 27 10.3268Z" fill="white"/>
</svg>
